<svg width="105" height="40" viewBox="0 0 105 40" fill="none" xmlns="http://www.w3.org/2000/svg">
<path d="M1.32501 38.9C1.53279 37.8991 3.12884 24.0313 5.31913 28.6124C6.09711 30.2395 6.58548 31.6931 7.53808 33.0213C9.78514 36.1545 17.1099 21.5555 18.3832 25.4023C18.9499 27.1143 20.5092 29.6718 21.6007 30.8555C23.218 32.6094 28.07 23.23 28.8955 20.8C29.9502 17.6954 28.1994 15.0411 30.6707 11.5953C32.7993 8.62723 33.0867 12.9289 34.5261 14.5346C35.74 15.8887 38.4125 10.9321 39.6574 9.81619C41.2857 8.35669 40.4969 8.84384 41.5158 11.0538C42.6927 13.6063 45.9378 8.97697 47.3128 8.03713C48.8031 7.01849 50.9191 12.8986 52.2223 14.1478C54.0418 15.8921 53.7076 14.2589 54.7463 12.2141C55.1737 11.3729 56.7091 13.8434 57.2427 14.1091C58.9101 14.9395 59.6477 5.0095 61.847 3.78285C65.6046 1.68704 69.6517 0.693813 70.2235 8.26918C70.3362 9.76139 72.234 2.82426 72.9695 2.00379C76.0661 -1.45046 78.5861 5.92913 80.4307 8.50123C81.1498 9.50386 81.7086 9.66149 82.7052 9.66149C83.2791 9.66149 83.8612 9.70469 84.092 8.81063C84.1512 8.58147 84.131 6.53246 84.5913 7.03157C84.76 7.21461 85.6799 8.68021 85.7285 8.57858C86.3491 7.28056 88.4953 5.39164 89.6949 5.48456C90.6405 5.55781 92.2501 7.65512 92.9401 8.61726C94.552 10.8648 97.3153 10.8278 99.4028 11.4405C101.868 12.1641 101.876 15.6917 103.175 18.7115" stroke="#FF8811" stroke-width="2.1" stroke-linecap="round" stroke-linejoin="round"/>
</svg>
