<svg width="109" height="35" viewBox="0 0 109 35" fill="none" xmlns="http://www.w3.org/2000/svg">
<path d="M1.27502 33.1C1.48956 32.2681 2.24928 14.2483 4.51085 18.0559C5.31414 19.4084 6.70667 27.1099 7.69027 28.2139C10.0105 30.8181 17.5736 18.6839 18.8883 21.8812C19.4734 23.3041 21.0835 25.4299 22.2105 26.4137C23.8804 27.8715 28.8903 20.0757 29.7427 18.0559C30.8317 15.4755 27.191 6.77599 29.7427 3.91195C31.9406 1.44505 34.0703 11.5138 35.5565 12.8484C36.8099 13.9739 38.0105 6.25389 39.296 5.32635C40.9772 4.11327 41.7216 8.11846 42.7737 9.95529C43.9888 12.0769 46.7747 6.10752 48.1945 5.32635C49.7333 4.4797 52.483 11.4886 53.8285 12.5269C55.7073 13.9767 56.0204 9.59756 57.093 7.89798C57.5342 7.19882 58.4613 12.2739 59.0123 12.4948C60.734 13.185 62.1027 3.45297 64.3736 2.43343C68.2535 0.691473 71.8251 1.34446 72.4156 7.64082C72.5319 8.88109 74.4914 3.11521 75.2509 2.43327C78.4483 -0.437775 81.0502 5.69586 82.9549 7.83369C83.6974 8.66704 84.2744 8.79806 85.3033 8.79806C85.896 8.79806 86.497 8.83396 86.7353 8.09086C86.7964 7.90039 86.7756 6.19733 87.2508 6.61217C87.4251 6.76431 88.3749 7.98245 88.425 7.89798C89.0658 6.81912 91.2819 5.24912 92.5205 5.32635C93.4969 5.38724 95.1588 7.13044 95.8713 7.93013C97.5357 9.79824 104.284 6.10285 106.439 6.61218C108.984 7.21356 105.098 13.8102 106.439 16.3201" stroke="#9111FF" stroke-width="2.1" stroke-linecap="round" stroke-linejoin="round"/>
</svg>
