<svg width="115" height="30" viewBox="0 0 115 30" fill="none" xmlns="http://www.w3.org/2000/svg">
<path d="M1.95001 28.2139C2.16455 27.382 4.26886 16.6652 8.86084 18.0559C12.8391 19.2607 11.0567 27.1098 12.0403 28.2139C14.3604 30.8181 18.9473 19.2683 23.2383 21.8812C25.1128 23.0226 25.4335 25.4299 26.5605 26.4137C28.2304 27.8715 25.7081 15.6947 26.5605 13.675C29.775 12.8484 29.0415 19.1295 34.5 19.975C38.6144 20.6122 34.5 9.95527 42.375 18.0559C45 12.4111 42.3605 6.25387 43.6459 5.32633C45.3272 4.11325 46.0716 8.11844 47.1237 9.95527C48.3388 12.0769 51.1247 6.1075 52.5445 5.32633C54.0833 4.47968 56.8329 11.4886 58.1785 12.5269C60.0573 13.9767 60.3704 9.59755 61.443 7.89797C61.8842 7.1988 63.1468 -6.275 65.475 11.575C66.0939 16.3201 66.8791 16.7945 69.15 15.775C73.0299 14.033 71.4503 2.43325 75.45 7.89995C77.025 8.94995 78.8414 3.11519 79.6009 2.43325C82.7983 -0.437793 84.3219 5.84775 86.2266 7.98559C86.969 8.81893 87.546 8.94995 88.575 8.94995C89.1677 8.94995 89.7687 8.98586 90.007 8.24275C90.0681 8.05229 90.6101 2.01841 91.0853 2.43325C91.2596 2.58539 92.7249 7.98244 92.775 7.89797C93.4158 6.8191 95.6319 5.2491 96.8705 5.32633C97.8469 5.38722 100.463 11.7272 101.175 12.5269C102.839 14.395 104.795 4.81701 106.95 5.32633C109.495 5.92772 111.908 13.2651 113.25 15.775" stroke="#11BBFF" stroke-width="2.1" stroke-linecap="round" stroke-linejoin="round"/>
</svg>
